<svg xmlns="http://www.w3.org/2000/svg" xmlns:xlink="http://www.w3.org/1999/xlink" width="632" height="242" viewBox="0 0 632 242">
    <defs>
        <rect id="a" width="36.295" height="36.333" rx="1.95"/>
        <ellipse id="c" cx="15.416" cy="15.432" rx="15.416" ry="15.432"/>
        <rect id="e" width="18.518" height="9.227" x="32.794" y=".112" rx="4.614"/>
        <ellipse id="f" cx="15.416" cy="15.432" rx="15.416" ry="15.432"/>
        <rect id="h" width="24.587" height="24.613" rx="1.95"/>
    </defs>
    <g fill="none" fill-rule="evenodd">
        <path stroke="#7C47AB" stroke-linecap="round" stroke-linejoin="round" stroke-width="1.2" d="M318.7 53.258v29.32h72.625a3 3 0 0 1 3 3v19.938"/>
        <path stroke="#7C47AB" stroke-linecap="round" stroke-linejoin="round" stroke-width="1.2" d="M318.7 53.258v29.32H561.78a3 3 0 0 1 3 3v19.938M318.7 53.258v29.308h-70.222a3 3 0 0 0-3 3v34.966"/>
        <path stroke="#7C47AB" stroke-linecap="round" stroke-linejoin="round" stroke-width="1.2" d="M318.7 53.258v29.308H75.624a3 3 0 0 0-3 3v34.966"/>
        <g transform="translate(167.453 102.512)">
            <rect width="137.766" height="229.718" y="9.01" fill="#D8D8D8" rx="1.95"/>
            <rect width="137.766" height="229.718" x="3.601" fill="#FFF" rx="1.95"/>
            <path fill="#ECECEC" d="M3.601 2.735h137.766v67.587H3.601z"/>
            <path fill="#A14570" d="M5.551 0h133.867a1.95 1.95 0 0 1 1.95 1.95v10.161H3.6V1.95A1.95 1.95 0 0 1 5.551 0z"/>
            <g fill="#FFF" transform="translate(127.351 3.907)">
                <ellipse cx="8.391" cy="2.149" rx="2.147" ry="2.149"/>
                <ellipse cx="2.147" cy="2.149" rx="2.147" ry="2.149"/>
            </g>
            <rect width="136.566" height="169.916" x="4.201" y=".6" stroke="#7C47AB" stroke-width="1.2" rx="1.95"/>
            <rect width="54.248" height="4.688" fill="#9F9F9F" rx="1.95" transform="translate(62.142 30.082)"/>
            <rect width="40.588" height="12.111" fill="#A14570" rx="6.055" transform="translate(62.532 42.584)"/>
            <g transform="translate(15.28 23.5)">
                <mask id="b" fill="#fff">
                    <use xlink:href="#a"/>
                </mask>
                <use fill="#72E0AF" xlink:href="#a"/>
                <g mask="url(#b)">
                    <g transform="translate(4.683 2.735)">
                        <path fill="#707070" d="M17.719 19.685l2.805-.274c1.97-2.198 2.785-4.14 2.448-5.823-.507-2.527-.473-2.272 0-3.822.473-1.55-2.717-12.455-9.486-9.005-.775-1.778-8.023.674-9.27 7.087-1.249 6.413 1.498 6.683 1.772 8.69.182 1.337.459 2.386.83 3.147h10.901z"/>
                        <ellipse cx="13.66" cy="12.802" fill="#F9F9F9" rx="6.557" ry="8.988"/>
                        <path fill="#707070" d="M10.051 3.75c0 1.146-.223 2.743 2.582 3.637 2.805.893 6.77.31 6.82 2.397.034 1.391.051 2.39.051 2.998l1.808-2.998-1.808-5.25c-6.302-1.287-9.453-1.548-9.453-.784z"/>
                        <path fill="#EDF283" d="M7.626 22.88h12.067a7.626 7.626 0 0 1 7.626 7.626v5.988c0 .905-.733 1.638-1.638 1.638H1.638A1.638 1.638 0 0 1 0 36.494v-5.988a7.626 7.626 0 0 1 7.626-7.627z"/>
                    </g>
                </g>
            </g>
            <g transform="translate(16.09 86.73)">
                <rect width="53.077" height="2.344" fill="#B4B4B4" rx="1.17"/>
                <rect width="107.715" height="2.344" y="7.814" fill="#DFDFDF" rx="1.17"/>
                <rect width="96.007" height="2.344" y="13.674" fill="#DFDFDF" rx="1.17"/>
                <rect width="111.618" height="2.344" y="19.925" fill="#DFDFDF" rx="1.17"/>
                <rect width="53.077" height="2.344" y="32.426" fill="#B4B4B4" rx="1.17"/>
                <rect width="107.715" height="2.344" y="40.24" fill="#DFDFDF" rx="1.17"/>
                <rect width="96.007" height="2.344" y="46.1" fill="#DFDFDF" rx="1.17"/>
                <rect width="111.618" height="2.344" y="52.351" fill="#DFDFDF" rx="1.17"/>
            </g>
        </g>
        <g transform="translate(0 102.512)">
            <rect width="137.766" height="253.159" y="6.007" fill="#D8D8D8" rx="1.95"/>
            <rect width="137.766" height="253.159" x="6.002" fill="#FFF" rx="1.95"/>
            <path fill="#ECECEC" d="M6.002 2.735h137.766v38.677H6.002z"/>
            <path fill="#2C2B3F" d="M7.952 0h133.866a1.95 1.95 0 0 1 1.95 1.95v10.161H6.002V1.95A1.95 1.95 0 0 1 7.952 0z"/>
            <rect width="136.566" height="169.916" x="6.602" y=".6" stroke="#7C47AB" stroke-width="1.2" rx="1.95"/>
            <g transform="translate(17.71 127.36)">
                <rect width="53.077" height="2.344" fill="#B4B4B4" rx="1.17"/>
                <rect width="107.715" height="2.344" y="7.814" fill="#DFDFDF" rx="1.17"/>
            </g>
            <rect width="77.664" height="4.688" x="34.102" y="65.634" fill="#B4B4B4" rx="1.17"/>
            <rect width="60.883" height="2.344" x="42.688" y="76.182" fill="#DFDFDF" rx="1.17"/>
            <g transform="translate(56.318 23.08)">
                <mask id="d" fill="#fff">
                    <use xlink:href="#c"/>
                </mask>
                <use fill="#72E0AF" xlink:href="#c"/>
                <g mask="url(#d)">
                    <g transform="translate(5.854 3.907)">
                        <path fill="#707070" d="M12.656 14.118l2.004-.197c1.407-1.576 1.99-2.969 1.748-4.176-.361-1.812-.338-1.63 0-2.74.338-1.112-1.94-8.934-6.775-6.46-.554-1.274-5.73.484-6.622 5.083-.892 4.6 1.07 4.793 1.266 6.232.13.96.328 1.712.593 2.258H12.656z"/>
                        <ellipse cx="9.757" cy="9.181" fill="#F9F9F9" rx="4.683" ry="6.446"/>
                        <path fill="#707070" d="M7.18 2.69c0 .82-.16 1.967 1.844 2.607 2.003.641 4.835.223 4.871 1.72.024.998.036 1.714.036 2.15l1.292-2.15-1.292-3.765C9.43 2.329 7.18 2.142 7.18 2.689z"/>
                        <path fill="#EDF283" d="M5.46 16.408h8.594a5.46 5.46 0 0 1 5.46 5.46v4.31a1.17 1.17 0 0 1-1.17 1.17H1.17A1.17 1.17 0 0 1 0 26.177v-4.31a5.46 5.46 0 0 1 5.46-5.46z"/>
                    </g>
                </g>
            </g>
            <path stroke="#D8D8D8" stroke-linecap="square" stroke-width=".5" d="M143.768 114.468H6.002"/>
            <g transform="translate(49.216 90.1)">
                <rect width="30.091" height="9.227" x=".099" y=".112" fill="#2C2B3F" rx="4.614"/>
                <use fill="#FFF" xlink:href="#e"/>
                <rect width="18.018" height="8.727" x="33.044" y=".362" stroke="#2C2B3F" stroke-width=".5" rx="4.364"/>
            </g>
            <ellipse cx="137.329" cy="5.665" fill="#FFF" rx="2.147" ry="2.149"/>
            <ellipse cx="131.084" cy="5.665" fill="#FFF" rx="2.147" ry="2.149"/>
        </g>
        <g transform="translate(487.954 102.512)">
            <rect width="137.766" height="171.116" y="6.007" fill="#D8D8D8" rx="1.95"/>
            <rect width="137.766" height="171.116" x="6.002" fill="#FFF" rx="1.95"/>
            <path fill="#ECECEC" d="M6.002 3.003h137.766V52.59H6.002z"/>
            <path fill="#6FBBE1" d="M7.952 0h133.866a1.95 1.95 0 0 1 1.95 1.95v10.161H6.002V1.95A1.95 1.95 0 0 1 7.952 0z"/>
            <rect width="136.566" height="169.916" x="6.602" y=".6" stroke="#7C47AB" stroke-width="1.2" rx="1.95"/>
            <g transform="translate(19.661 71.494)">
                <rect width="32.663" height="2.344" x="37.076" y=".391" fill="#B4B4B4" rx="1.17"/>
                <rect width="66.286" height="2.344" x="37.076" y="8.204" fill="#DFDFDF" rx="1.17"/>
                <rect width="13.149" height="2.344" fill="#B4B4B4" rx="1.17"/>
                <rect width="23.356" height="2.344" y="5.86" fill="#DFDFDF" rx="1.17"/>
                <rect width="13.149" height="2.344" y="19.534" fill="#B4B4B4" rx="1.17"/>
                <rect width="23.356" height="2.344" y="25.394" fill="#DFDFDF" rx="1.17"/>
                <rect width="16.271" height="2.344" y="36.064" fill="#B4B4B4" rx="1.17"/>
                <rect width="21.015" height="2.344" y="41.925" fill="#DFDFDF" rx="1.17"/>
                <rect width="59.081" height="2.344" x="37.076" y="14.064" fill="#DFDFDF" rx="1.17"/>
                <rect width="68.688" height="2.344" x="37.076" y="20.315" fill="#DFDFDF" rx="1.17"/>
                <rect width="32.663" height="2.344" x="37.076" y="32.817" fill="#B4B4B4" rx="1.17"/>
                <rect width="66.286" height="2.344" x="37.076" y="40.63" fill="#DFDFDF" rx="1.17"/>
                <rect width="59.081" height="2.344" x="37.076" y="46.491" fill="#DFDFDF" rx="1.17"/>
                <rect width="68.688" height="2.344" x="37.076" y="52.741" fill="#DFDFDF" rx="1.17"/>
            </g>
            <rect width="37.171" height="1.953" x="55.818" y="40.245" fill="#B4B4B4" rx=".977"/>
            <rect width="25.462" height="1.563" x="55.818" y="46.251" fill="#DFDFDF" rx=".781"/>
            <rect width="21.855" height="6.642" x="111.635" y="40.245" fill="#6FBBE1" rx="3.321"/>
            <ellipse cx="137.329" cy="5.665" fill="#FFF" rx="2.147" ry="2.149"/>
            <ellipse cx="131.084" cy="5.665" fill="#FFF" rx="2.147" ry="2.149"/>
        </g>
        <g transform="translate(322.902 102.512)">
            <rect width="137.766" height="190.65" y="9.01" fill="#D8D8D8" rx="1.95"/>
            <rect width="137.766" height="190.65" x="4.802" fill="#FFF" rx="1.95"/>
            <path fill="#EDF283" d="M6.752 0h133.866a1.95 1.95 0 0 1 1.95 1.95v10.161H4.802V1.95A1.95 1.95 0 0 1 6.752 0z"/>
            <rect width="136.566" height="169.916" x="5.402" y=".6" stroke="#7C47AB" stroke-width="1.2" rx="1.95"/>
            <rect width="60.102" height="3.516" x="18.071" y="30.082" fill="#B4B4B4" rx="1.17"/>
            <rect width="47.223" height="2.344" x="18.071" y="38.677" fill="#DFDFDF" rx="1.17"/>
            <g transform="translate(100.599 24.041)">
                <mask id="g" fill="#fff">
                    <use xlink:href="#f"/>
                </mask>
                <use fill="#72E0AF" xlink:href="#f"/>
                <g mask="url(#g)">
                    <g transform="translate(5.854 3.907)">
                        <path fill="#707070" d="M12.656 14.118l2.004-.197c1.407-1.576 1.99-2.969 1.748-4.176-.361-1.812-.338-1.63 0-2.74.338-1.112-1.94-8.934-6.775-6.46-.554-1.274-5.73.484-6.622 5.083-.892 4.6 1.07 4.793 1.266 6.232.13.96.328 1.712.593 2.258H12.656z"/>
                        <ellipse cx="9.757" cy="9.181" fill="#F9F9F9" rx="4.683" ry="6.446"/>
                        <path fill="#707070" d="M7.18 2.69c0 .82-.16 1.967 1.844 2.607 2.003.641 4.835.223 4.871 1.72.024.998.036 1.714.036 2.15l1.292-2.15-1.292-3.765C9.43 2.329 7.18 2.142 7.18 2.689z"/>
                        <path fill="#EDF283" d="M5.46 16.408h8.594a5.46 5.46 0 0 1 5.46 5.46v4.31a1.17 1.17 0 0 1-1.17 1.17H1.17A1.17 1.17 0 0 1 0 26.177v-4.31a5.46 5.46 0 0 1 5.46-5.46z"/>
                    </g>
                </g>
            </g>
            <path stroke="#D8D8D8" stroke-linecap="square" stroke-width=".5" d="M142.568 94.934H4.802"/>
            <rect width="30.832" height="10.548" x="101.199" y="61.727" fill="#D5D5D5" rx="5.274"/>
            <ellipse cx="136.128" cy="5.665" fill="#FFF" rx="2.147" ry="2.149"/>
            <ellipse cx="129.884" cy="5.665" fill="#FFF" rx="2.147" ry="2.149"/>
        </g>
        <g fill="#C9C9C9" transform="translate(366.731 221.669)">
            <rect width="74.741" height="2.344" rx="1.17"/>
            <rect width="82.738" height="2.344" y="5.86" rx="1.17"/>
            <rect width="69.046" height="2.344" y="12.111" rx="1.17"/>
        </g>
        <g fill="#B4B4B4">
            <path d="M369.154 215.171l-1.739.915.332-1.938-1.406-1.372 1.943-.283.87-1.763.869 1.763 1.944.283-1.407 1.372.332 1.938zM375.543 215.171l-1.739.915.332-1.938-1.406-1.372 1.943-.283.87-1.763.869 1.763 1.944.283-1.407 1.372.332 1.938zM381.931 215.171l-1.738.915.332-1.938-1.407-1.372 1.944-.283.87-1.763.869 1.763 1.943.283-1.406 1.372.332 1.938zM388.32 215.171l-1.738.915.332-1.938-1.407-1.372 1.944-.283.87-1.763.869 1.763 1.943.283-1.406 1.372.332 1.938zM394.622 215.171l-1.739.915.332-1.938-1.406-1.372 1.944-.283.869-1.763.87 1.763 1.943.283-1.407 1.372.332 1.938z"/>
        </g>
        <g fill="#B4B4B4">
            <path d="M343.595 154.315l-1.62.853.31-1.806-1.312-1.28 1.812-.263.81-1.644.81 1.644 1.813.263-1.311 1.28.31 1.806zM349.551 154.315l-1.62.853.31-1.806-1.312-1.28 1.812-.263.81-1.644.81 1.644 1.813.263-1.311 1.28.309 1.806zM355.507 154.315l-1.62.853.309-1.806-1.311-1.28 1.812-.263.81-1.644.81 1.644 1.813.263-1.312 1.28.31 1.806zM361.463 154.315l-1.62.853.309-1.806-1.311-1.28 1.812-.263.81-1.644.81 1.644 1.813.263-1.312 1.28.31 1.806zM367.338 154.315l-1.621.853.31-1.806-1.312-1.28 1.812-.263.81-1.644.811 1.644 1.812.263-1.311 1.28.31 1.806z"/>
        </g>
        <ellipse cx="8.391" cy="8.4" fill="#B4B4B4" rx="8.391" ry="8.4" transform="translate(342.144 210.73)"/>
        <g fill="#F3F3F3" transform="translate(340.973 172.053)">
            <rect width="15.299" height="5.469" rx="2.73"/>
            <rect width="11.747" height="5.469" x="17.211" rx="2.73"/>
            <rect width="15.299" height="5.469" x="31.144" rx="2.73"/>
        </g>
        <g transform="translate(507.16 138.552)">
            <mask id="i" fill="#fff">
                <use xlink:href="#h"/>
            </mask>
            <use fill="#72E0AF" xlink:href="#h"/>
            <rect width="25.757" height="25.783" x="-.585" y="-.585" stroke="#FFF" stroke-width="1.17" rx="1.95"/>
            <g mask="url(#i)">
                <g transform="translate(3.122 1.953)">
                    <path fill="#707070" d="M11.897 13.257l1.883-.185c1.323-1.48 1.87-2.787 1.644-3.921-.34-1.702-.318-1.53 0-2.574.318-1.043-1.824-8.388-6.37-6.065-.52-1.197-5.386.454-6.224 4.773-.838 4.32 1.007 4.501 1.19 5.853.123.9.308 1.607.558 2.12H11.897z"/>
                    <ellipse cx="9.171" cy="8.621" fill="#F9F9F9" rx="4.402" ry="6.053"/>
                    <path fill="#707070" d="M6.749 2.525c0 .772-.15 1.848 1.733 2.45 1.884.601 4.546.208 4.58 1.614.022.937.034 1.61.034 2.02l1.213-2.02-1.213-3.536c-4.232-.866-6.347-1.042-6.347-.528z"/>
                    <path fill="#EDF283" d="M5.136 15.409h8.07c2.837 0 5.137 2.3 5.137 5.136v3.498c0 .905-.734 1.638-1.638 1.638H1.638A1.638 1.638 0 0 1 0 24.043v-3.498c0-2.837 2.3-5.136 5.136-5.136z"/>
                </g>
            </g>
        </g>
        <g transform="translate(289.892 1)">
            <ellipse cx="26.408" cy="28.832" fill="#6FBBE1" rx="26.408" ry="26.429"/>
            <path fill="#FFF" fill-rule="nonzero" d="M27.26 19.807a9.96 9.96 0 0 0-1.152-.067c-5.47 0-9.903 4.456-9.903 9.952 0 5.496 4.434 9.952 9.903 9.952 5.396 0 9.784-4.337 9.901-9.731.002-.028.002-.056.002-.084V14.04a1.42 1.42 0 0 0-1.414-1.425 1.42 1.42 0 0 0-1.415 1.425v15.678c-.013 3.909-3.174 7.076-7.074 7.076-3.908 0-7.073-3.18-7.073-7.101 0-3.92 3.165-7.101 7.073-7.101.426 0 .844.037 1.25.11.27.048-.435.758-2.114 2.129a1.433 1.433 0 0 0 0 2.015 1.407 1.407 0 0 0 2 0l4.502-4.535c.277-.278.415-.643.415-1.008 0-.364-.138-.729-.415-1.007l-4.501-4.535a1.407 1.407 0 0 0-2.001 0 1.433 1.433 0 0 0 0 2.015l2.017 2.032z"/>
            <ellipse cx="28.809" cy="26.429" stroke="#7C47AB" stroke-width="1.2" rx="26.408" ry="26.429"/>
        </g>
    </g>
</svg>
